<svg xmlns="http://www.w3.org/2000/svg"
     viewBox="0 0 2364.66 884.07">
  <defs>
    <style>
      .cls-1 {
        fill: #df151a;
      }
      .cls-2 {
        fill: #fff;
      }
    </style>
  </defs>
  <title>logo</title>
  <g id="Layer_2" data-name="Layer 2">
    <g id="Horizontal">
      <g id="Black_Monotone" data-name="Black Monotone">
        <g id="Mark">
          <path id="P" class="cls-1" d="M477,186V54.78L382.35.11,0,220.86v441.5l155.82,90-16-96.73-64-37v-354l306.6-177,18.94,10.93V741L477,697.24V479.48h174v-193Zm98.29,217.75H477V273.45l98.29,56.74Z"/>
          <polygon id="V" class="cls-2" points="514.91 76.64 514.91 164.11 688.95 264.59 688.95 618.63 382.35 795.64 273.39 732.73 363.41 142.25 283.12 188.6 236.3 511.82 189.37 242.73 113.63 286.46 198.36 775.18 382.35 883.11 764.7 662.36 764.7 220.86 514.91 76.64"/>
        </g>
        <path class="cls-2" d="M839.24,1.14h70.87l37.72,260.62L985.55,1.14h68.58L982.69,402.36h-72Z"/>
        <path class="cls-2" d="M1119.86,0h74.3l76,401.22h-69.73l-13.15-79.45h-63.44l-12.57,79.45h-67.44ZM1177,258.9l-21.15-132-21.72,132Z"/>
        <path class="cls-2" d="M1291.32,1.14h72c71.45,0,123.46,37.72,123.46,127.45v5.15c0,52-20.58,85.16-46.87,105.16l53.72,162.32h-74.3l-45.15-139.46h-13.14V401.22h-69.73Zm73.16,197.75c30.29,0,52.58-17.71,52.58-64.58v-4.57c0-50.3-24-63.44-54.3-63.44h-1.71V198.89Z"/>
        <path class="cls-2" d="M1518.79,1.14h69.73V334.92h73.72v66.3H1518.79Z"/>
        <path class="cls-2" d="M1743.4,0h74.3l76,401.22H1824l-13.15-79.45H1747.4l-12.57,79.45h-67.44Zm57.16,258.9-21.15-132-21.72,132Z"/>
        <path class="cls-2" d="M1914.86,1.14H1980l70.3,202.33V1.14h68V401.22H2056.6l-73.73-212v212h-68Z"/>
        <path class="cls-2" d="M2159.48,1.14h65.15c89.16,0,140,64.59,140,193.18V208c0,128.59-50.87,193.18-140,193.18h-65.15Zm72.58,336.06c33.15,0,61.73-29.14,61.73-129.16V194.32c0-100-28.58-129.17-61.73-129.17h-2.86v272Z"/>
        <path class="cls-2" d="M942.4,481.14h62.3c76,0,129.16,41.15,129.16,134.88v1.15c0,90.3-50.29,133.16-121.16,138.31h-.57V881.22H942.4Zm70.3,209.76c29.15-1.72,51.44-22.87,51.44-71.45v-1.14c0-50.87-19.44-72.58-49.73-72.58h-2.28V690.9Z"/>
        <path class="cls-2" d="M1162.44,481.14h69.73V814.92h73.72v66.3H1162.44Z"/>
        <path class="cls-2" d="M1387.05,480h74.3l76,401.22h-69.72l-13.15-79.45h-63.44l-12.57,79.45H1311Zm57.15,258.9-21.14-132-21.72,132Z"/>
        <path class="cls-2" d="M1578.51,547.44h-49.15v-66.3h168v66.3h-49.15V881.22h-69.73Z"/>
        <path class="cls-2" d="M1727.68,481.14h69.73V881.22h-69.73Z"/>
        <path class="cls-2" d="M1839.7,481.14h65.15l70.3,202.33V481.14h68V881.22h-61.73l-73.73-212v212h-68Z"/>
        <path class="cls-2" d="M2077.46,688V674.32c0-129.17,54.86-196,133.73-196,21.15,0,38.87,4.57,53.16,11.43V562.3c-17.15-10.29-32.58-17.15-50.87-17.15-40,0-65.15,40-65.15,126.31V690.9c0,104.59,30.86,128.59,59.44,128.59a28.09,28.09,0,0,0,6.28-.57V716.61h-34.29V654.32h97.73V866.93c-25.15,10.86-45.72,17.14-72.58,17.14C2135.18,884.07,2077.46,827.49,2077.46,688Z"/>
      </g>
    </g>
  </g>
</svg>